<svg width="48" height="48" viewBox="0 0 48 48" fill="none" xmlns="http://www.w3.org/2000/svg">
<path fill-rule="evenodd" clip-rule="evenodd" d="M22.0285 9.6C22.3725 9.15 22.9965 8.5 24.0005 8.5C25.0045 8.5 25.6285 9.15 25.9725 9.6C26.3025 10.028 26.6325 10.622 26.9725 11.232L27.2145 11.668L27.3285 11.868L27.5265 11.914L28.0025 12.022C28.6565 12.17 29.3085 12.316 29.8085 12.514C30.3605 12.732 31.1085 13.154 31.3985 14.084C31.6825 14.994 31.3245 15.766 31.0125 16.264C30.7225 16.724 30.2825 17.236 29.8325 17.762L29.5125 18.138L29.3485 18.332C29.3525 18.404 29.3625 18.488 29.3725 18.602L29.4205 19.102C29.4885 19.804 29.5545 20.484 29.5305 21.028C29.5065 21.6 29.3705 22.464 28.5945 23.05C27.7945 23.658 26.9145 23.526 26.3545 23.364C25.8385 23.218 25.2285 22.936 24.6145 22.654L24.1705 22.448L24.0005 22.37L23.8305 22.45L23.3845 22.654C22.7725 22.936 22.1625 23.218 21.6465 23.364C21.0865 23.524 20.2065 23.658 19.4065 23.05C18.6325 22.464 18.4945 21.6 18.4705 21.03C18.4465 20.484 18.5105 19.804 18.5805 19.1L18.6285 18.6L18.6545 18.332L18.4885 18.138L18.1685 17.762C17.7185 17.236 17.2785 16.722 16.9885 16.262C16.6765 15.766 16.3185 14.994 16.6025 14.082C16.8905 13.156 17.6405 12.732 18.1925 12.514C18.6925 12.316 19.3445 12.17 19.9985 12.022L20.4745 11.914L20.6745 11.868L20.7865 11.668L21.0285 11.232C21.3685 10.622 21.6985 10.028 22.0285 9.6ZM24.0005 12.068C23.8858 12.268 23.7531 12.504 23.6025 12.776L23.4065 13.128L23.3605 13.208C23.2045 13.496 22.9445 13.972 22.5105 14.302C22.0685 14.638 21.5345 14.754 21.2245 14.822L21.1365 14.84L20.7565 14.926C20.4045 15.006 20.1185 15.07 19.8765 15.132C20.0345 15.326 20.2405 15.57 20.5085 15.884L20.7685 16.188L20.8285 16.256C21.0445 16.506 21.3925 16.906 21.5545 17.426C21.7145 17.938 21.6585 18.466 21.6245 18.798L21.6145 18.892L21.5745 19.298C21.5436 19.6044 21.5156 19.9111 21.4905 20.218C21.7005 20.126 21.9365 20.018 22.2185 19.888L22.5765 19.724L22.6565 19.684C22.9445 19.55 23.4425 19.314 24.0005 19.314C24.5585 19.314 25.0565 19.55 25.3445 19.686L25.4245 19.724L25.7825 19.888C26.0611 20.0173 26.3038 20.1273 26.5105 20.218C26.4853 19.9111 26.4573 19.6044 26.4265 19.298L26.3865 18.892L26.3765 18.798C26.3425 18.464 26.2865 17.938 26.4465 17.426C26.6065 16.906 26.9565 16.506 27.1725 16.256L27.2325 16.188L27.4925 15.884C27.7605 15.57 27.9665 15.326 28.1245 15.132C27.8825 15.072 27.5965 15.006 27.2445 14.926L26.8645 14.84L26.7765 14.82C26.4665 14.754 25.9325 14.638 25.4905 14.3C25.0565 13.972 24.7965 13.496 24.6405 13.21L24.5945 13.128L24.3985 12.776C24.2491 12.504 24.1165 12.268 24.0005 12.068Z" fill="white"/>
<path fill-rule="evenodd" clip-rule="evenodd" d="M14.996 3.21359C17.9721 2.72456 20.984 2.48573 24 2.49959C27.656 2.49959 30.678 2.82159 33.004 3.21359L33.274 3.25959C35.294 3.59759 36.974 3.87959 38.286 5.49559C39.128 6.53359 39.4 7.65559 39.462 8.90559L40.446 9.23359C41.372 9.54159 42.186 9.81359 42.828 10.1136C43.524 10.4376 44.162 10.8536 44.65 11.5316C45.138 12.2096 45.332 12.9456 45.42 13.7076C45.5 14.4136 45.5 15.2676 45.5 16.2476V16.5356C45.5 17.3396 45.5 18.0496 45.44 18.6436C45.376 19.2856 45.234 19.9116 44.88 20.5156C44.522 21.1216 44.044 21.5496 43.514 21.9176C43.024 22.2576 42.404 22.6036 41.7 22.9936L36.42 25.9276C35.34 28.0496 33.86 29.9416 31.82 31.3076C30.07 32.4816 27.976 33.2256 25.5 33.4376V37.4996H28.36C29.1692 37.4996 29.9533 37.78 30.5791 38.2931C31.2048 38.8061 31.6334 39.5201 31.792 40.3136L32.23 42.4996H36C36.3978 42.4996 36.7794 42.6576 37.0607 42.9389C37.342 43.2202 37.5 43.6018 37.5 43.9996C37.5 44.3974 37.342 44.779 37.0607 45.0603C36.7794 45.3416 36.3978 45.4996 36 45.4996H12C11.6022 45.4996 11.2206 45.3416 10.9393 45.0603C10.658 44.779 10.5 44.3974 10.5 43.9996C10.5 43.6018 10.658 43.2202 10.9393 42.9389C11.2206 42.6576 11.6022 42.4996 12 42.4996H15.77L16.208 40.3136C16.3666 39.5201 16.7952 38.8061 17.4209 38.2931C18.0467 37.78 18.8308 37.4996 19.64 37.4996H22.5V33.4376C20.024 33.2256 17.93 32.4816 16.18 31.3096C14.142 29.9416 12.66 28.0496 11.58 25.9276L6.3 22.9936C5.67848 22.6641 5.07312 22.3051 4.486 21.9176C3.93212 21.5591 3.46595 21.0806 3.122 20.5176C2.7964 19.943 2.60432 19.3025 2.56 18.6436C2.5 18.0496 2.5 17.3396 2.5 16.5356V16.2456C2.5 15.2696 2.5 14.4136 2.58 13.7076C2.668 12.9456 2.86 12.2076 3.35 11.5316C3.838 10.8536 4.476 10.4376 5.17 10.1116C5.816 9.81159 6.628 9.54159 7.554 9.23359L8.538 8.90559C8.6 7.65359 8.872 6.53359 9.714 5.49559C11.028 3.87759 12.706 3.59559 14.728 3.25959L14.996 3.21359ZM18.83 42.4996H29.17L28.85 40.9016C28.8274 40.7883 28.7662 40.6863 28.6768 40.613C28.5875 40.5398 28.4755 40.4997 28.36 40.4996H19.64C19.5245 40.4997 19.4125 40.5398 19.3232 40.613C19.2338 40.6863 19.1726 40.7883 19.15 40.9016L18.83 42.4996ZM8.604 12.0456L8.576 12.0556C7.556 12.3956 6.908 12.6156 6.436 12.8336C6.002 13.0336 5.862 13.1756 5.784 13.2856C5.706 13.3956 5.616 13.5716 5.562 14.0476C5.502 14.5636 5.5 15.2476 5.5 16.3236V16.4696C5.5 17.3596 5.5 17.9176 5.544 18.3456C5.584 18.7376 5.648 18.8956 5.708 18.9956C5.766 19.0956 5.872 19.2276 6.196 19.4536C6.548 19.6976 7.036 19.9696 7.816 20.4036L9.946 21.5876C9.09 18.4476 8.746 15.0876 8.606 12.0476M38.056 21.5876C38.912 18.4476 39.256 15.0876 39.398 12.0476L39.426 12.0576C40.446 12.3976 41.094 12.6176 41.566 12.8356C42 13.0356 42.14 13.1776 42.218 13.2876C42.296 13.3976 42.386 13.5736 42.44 14.0496C42.5 14.5656 42.502 15.2496 42.502 16.3256V16.4716C42.502 17.3616 42.502 17.9196 42.458 18.3476C42.418 18.7396 42.354 18.8976 42.294 18.9976C42.236 19.0976 42.13 19.2296 41.806 19.4556C41.452 19.6996 40.966 19.9716 40.186 20.4056L38.056 21.5876ZM24 5.49959C20.52 5.49959 17.666 5.80559 15.496 6.17159C13.082 6.57959 12.576 6.73159 12.044 7.38759C11.52 8.03159 11.47 8.64359 11.576 11.3536C11.756 15.8696 12.352 20.7456 14.196 24.4536C15.108 26.2816 16.3 27.7776 17.852 28.8176C19.392 29.8516 21.382 30.4996 24 30.4996C26.62 30.4996 28.608 29.8516 30.15 28.8176C31.702 27.7776 32.892 26.2816 33.802 24.4516C35.648 20.7456 36.244 15.8716 36.422 11.3516C36.532 8.64359 36.482 8.03159 35.958 7.38759C35.426 6.73159 34.918 6.57959 32.504 6.17159C29.693 5.71143 26.8484 5.48665 24 5.49959Z" fill="white"/>
</svg>
