<svg width="40" height="40" viewBox="0 0 40 40" fill="none" xmlns="http://www.w3.org/2000/svg">
<path d="M19.1663 5C23.3656 5 27.3929 6.66815 30.3622 9.63748C33.3315 12.6068 34.9997 16.6341 34.9997 20.8333C34.9997 25.0326 33.3315 29.0599 30.3622 32.0292C27.3929 34.9985 23.3656 36.6667 19.1663 36.6667C14.9671 36.6667 10.9398 34.9985 7.97048 32.0292C5.00116 29.0599 3.33301 25.0326 3.33301 20.8333C3.33301 16.6341 5.00116 12.6068 7.97048 9.63748C10.9398 6.66815 14.9671 5 19.1663 5ZM19.1663 6.66667C15.4091 6.66667 11.8058 8.15922 9.149 10.816C6.49223 13.4728 4.99967 17.0761 4.99967 20.8333C4.99967 24.5906 6.49223 28.1939 9.149 30.8507C11.8058 33.5074 15.4091 35 19.1663 35C21.0267 35 22.8689 34.6336 24.5877 33.9216C26.3065 33.2097 27.8682 32.1662 29.1837 30.8507C30.4992 29.5352 31.5427 27.9735 32.2546 26.2547C32.9666 24.5359 33.333 22.6937 33.333 20.8333C33.333 17.0761 31.8405 13.4728 29.1837 10.816C26.5269 8.15922 22.9236 6.66667 19.1663 6.66667ZM18.333 11.6667H19.9997V20.7L27.833 25.2167L26.9997 26.6667L18.333 21.6667V11.6667Z" fill="white"/>
</svg>
