<svg width="48" height="48" viewBox="0 0 48 48" fill="none" xmlns="http://www.w3.org/2000/svg">
<path d="M6 6C6 4.93913 6.42143 3.92172 7.17157 3.17157C7.92172 2.42143 8.93913 2 10 2H29.964C31.0248 2.00023 32.042 2.4218 32.792 3.172L40.828 11.208C41.5782 11.958 41.9998 12.9752 42 14.036V42C42 43.0609 41.5786 44.0783 40.8284 44.8284C40.0783 45.5786 39.0609 46 38 46H9.5C9.10218 46 8.72064 45.842 8.43934 45.5607C8.15804 45.2794 8 44.8978 8 44.5C8 44.1022 8.15804 43.7206 8.43934 43.4393C8.72064 43.158 9.10218 43 9.5 43H38C38.2652 43 38.5196 42.8946 38.7071 42.7071C38.8946 42.5196 39 42.2652 39 42V17H31C29.9391 17 28.9217 16.5786 28.1716 15.8284C27.4214 15.0783 27 14.0609 27 13V5H10C9.73478 5 9.48043 5.10536 9.29289 5.29289C9.10536 5.48043 9 5.73478 9 6V18.5C9 18.8978 8.84196 19.2794 8.56066 19.5607C8.27936 19.842 7.89782 20 7.5 20C7.10218 20 6.72064 19.842 6.43934 19.5607C6.15804 19.2794 6 18.8978 6 18.5V6ZM30 5V13C30 13.2652 30.1054 13.5196 30.2929 13.7071C30.4804 13.8946 30.7348 14 31 14H39C38.9912 13.7471 38.8868 13.507 38.708 13.328L30.672 5.292C30.493 5.11315 30.2529 5.00881 30 5Z" fill="white"/>
<path d="M9.0602 24.4802C9.19429 24.6245 9.29863 24.7938 9.36728 24.9785C9.43593 25.1631 9.46754 25.3595 9.4603 25.5563C9.45305 25.7532 9.4071 25.9467 9.32507 26.1258C9.24304 26.3049 9.12653 26.4661 8.9822 26.6002L3.7042 31.5002L8.9842 36.4002C9.12865 36.5344 9.24526 36.6957 9.32735 36.875C9.40945 37.0543 9.45543 37.248 9.46268 37.445C9.46992 37.6421 9.43828 37.8386 9.36957 38.0234C9.30085 38.2083 9.19641 38.3777 9.0622 38.5222C8.92799 38.6666 8.76664 38.7832 8.58736 38.8653C8.40809 38.9474 8.2144 38.9934 8.01735 39.0007C7.6194 39.0153 7.23193 38.8712 6.9402 38.6002L0.480196 32.6002C0.328739 32.4598 0.207911 32.2896 0.125281 32.1003C0.0426509 31.911 0 31.7067 0 31.5002C0 31.2937 0.0426509 31.0893 0.125281 30.9001C0.207911 30.7108 0.328739 30.5406 0.480196 30.4002L6.9402 24.4002C7.08464 24.2662 7.25406 24.162 7.43878 24.0935C7.6235 24.0251 7.8199 23.9936 8.01677 24.0011C8.21363 24.0085 8.40711 24.0546 8.58614 24.1368C8.76517 24.219 8.92626 24.3357 9.0602 24.4802ZM17.0182 26.6002C16.8737 26.4662 16.7571 26.3052 16.6749 26.1261C16.5927 25.9471 16.5466 25.7536 16.5391 25.5568C16.5241 25.1592 16.6677 24.7719 16.9382 24.4802C17.2087 24.1884 17.5841 24.0161 17.9816 24.0011C18.3792 23.9861 18.7665 24.1297 19.0582 24.4002L25.5202 30.4002C25.6717 30.5406 25.7925 30.7108 25.8751 30.9001C25.9577 31.0893 26.0004 31.2937 26.0004 31.5002C26.0004 31.7067 25.9577 31.911 25.8751 32.1003C25.7925 32.2896 25.6717 32.4598 25.5202 32.6002L19.0602 38.6002C18.7685 38.871 18.3811 39.0148 17.9833 39C17.5856 38.9851 17.21 38.8129 16.9392 38.5212C16.6684 38.2294 16.5246 37.8421 16.5394 37.4443C16.5542 37.0466 16.7265 36.671 17.0182 36.4002L22.2962 31.5002L17.0182 26.6002Z" fill="white"/>
</svg>
